<svg height="1598" width="720" xmlns="http://www.w3.org/2000/svg">
<rect height="1598" fill="#555" width="720"></rect>
<text fill="#7f7" font-family="Courier New" font-size="12" xml:space="preserve">
<tspan x="10" y="26">└─┬ gulp-mocha@4.3.0 </tspan>
<tspan x="10" y="42">  ├── dargs@5.1.0 </tspan>
<tspan x="10" y="58">  ├─┬ execa@0.6.3 </tspan>
<tspan x="10" y="74">  │ ├─┬ cross-spawn@5.1.0 </tspan>
<tspan x="10" y="90">  │ │ ├─┬ lru-cache@4.0.2 </tspan>
<tspan x="10" y="106">  │ │ │ ├── pseudomap@1.0.2 </tspan>
<tspan x="10" y="122">  │ │ │ └── yallist@2.1.2 </tspan>
<tspan x="10" y="138">  │ │ ├─┬ shebang-command@1.2.0 </tspan>
<tspan x="10" y="154">  │ │ │ └── shebang-regex@1.0.0 </tspan>
<tspan x="10" y="170">  │ │ └─┬ which@1.2.14 </tspan>
<tspan x="10" y="186">  │ │   └── isexe@2.0.0 </tspan>
<tspan x="10" y="202">  │ ├── get-stream@3.0.0 </tspan>
<tspan x="10" y="218">  │ ├── is-stream@1.1.0 </tspan>
<tspan x="10" y="234">  │ ├── p-finally@1.0.0 </tspan>
<tspan x="10" y="250">  │ ├── signal-exit@3.0.2 </tspan>
<tspan x="10" y="266">  │ └── strip-eof@1.0.0 </tspan>
<tspan x="10" y="282">  ├─┬ gulp-util@3.0.8 </tspan>
<tspan x="10" y="298">  │ ├── array-differ@1.0.0 </tspan>
<tspan x="10" y="314">  │ ├── array-uniq@1.0.3 </tspan>
<tspan x="10" y="330">  │ ├── beeper@1.1.1 </tspan>
<tspan x="10" y="346">  │ ├─┬ chalk@1.1.3 </tspan>
<tspan x="10" y="362">  │ │ ├── ansi-styles@2.2.1 </tspan>
<tspan x="10" y="378">  │ │ ├─┬ has-ansi@2.0.0 </tspan>
<tspan x="10" y="394">  │ │ │ └── ansi-regex@2.1.1 </tspan>
<tspan x="10" y="410">  │ │ ├── strip-ansi@3.0.1 </tspan>
<tspan x="10" y="426">  │ │ └── supports-color@2.0.0 </tspan>
<tspan x="10" y="442">  │ ├── dateformat@2.0.0 </tspan>
<tspan x="10" y="458">  │ ├─┬ fancy-log@1.3.0 </tspan>
<tspan x="10" y="474">  │ │ └── time-stamp@1.0.1 </tspan>
<tspan x="10" y="490">  │ ├─┬ gulplog@1.0.0 </tspan>
<tspan x="10" y="506">  │ │ └── glogg@1.0.0 </tspan>
<tspan x="10" y="522">  │ ├─┬ has-gulplog@0.1.0 </tspan>
<tspan x="10" y="538">  │ │ └── sparkles@1.0.0 </tspan>
<tspan x="10" y="554">  │ ├── lodash._reescape@3.0.0 </tspan>
<tspan x="10" y="570">  │ ├── lodash._reevaluate@3.0.0 </tspan>
<tspan x="10" y="586">  │ ├── lodash._reinterpolate@3.0.0 </tspan>
<tspan x="10" y="602">  │ ├─┬ lodash.template@3.6.2 </tspan>
<tspan x="10" y="618">  │ │ ├── lodash._basecopy@3.0.1 </tspan>
<tspan x="10" y="634">  │ │ ├── lodash._basetostring@3.0.1 </tspan>
<tspan x="10" y="650">  │ │ ├── lodash._basevalues@3.0.0 </tspan>
<tspan x="10" y="666">  │ │ ├── lodash._isiterateecall@3.0.9 </tspan>
<tspan x="10" y="682">  │ │ ├─┬ lodash.escape@3.2.0 </tspan>
<tspan x="10" y="698">  │ │ │ └── lodash._root@3.0.1 </tspan>
<tspan x="10" y="714">  │ │ ├─┬ lodash.keys@3.1.2 </tspan>
<tspan x="10" y="730">  │ │ │ ├── lodash._getnative@3.9.1 </tspan>
<tspan x="10" y="746">  │ │ │ ├── lodash.isarguments@3.1.0 </tspan>
<tspan x="10" y="762">  │ │ │ └── lodash.isarray@3.0.4 </tspan>
<tspan x="10" y="778">  │ │ ├── lodash.restparam@3.6.1 </tspan>
<tspan x="10" y="794">  │ │ └── lodash.templatesettings@3.1.1 </tspan>
<tspan x="10" y="810">  │ ├── minimist@1.2.0 </tspan>
<tspan x="10" y="826">  │ ├─┬ multipipe@0.1.2 </tspan>
<tspan x="10" y="842">  │ │ └─┬ duplexer2@0.0.2 </tspan>
<tspan x="10" y="858">  │ │   └─┬ readable-stream@1.1.14 </tspan>
<tspan x="10" y="874">  │ │     └── isarray@0.0.1 </tspan>
<tspan x="10" y="890">  │ ├── object-assign@3.0.0 </tspan>
<tspan x="10" y="906">  │ ├── replace-ext@0.0.1 </tspan>
<tspan x="10" y="922">  │ └─┬ vinyl@0.5.3 </tspan>
<tspan x="10" y="938">  │   ├── clone@1.0.2 </tspan>
<tspan x="10" y="954">  │   └── clone-stats@0.0.1 </tspan>
<tspan x="10" y="970">  ├─┬ mocha@3.2.0 </tspan>
<tspan x="10" y="986">  │ ├── browser-stdout@1.3.0 </tspan>
<tspan x="10" y="1002">  │ ├─┬ commander@2.9.0 </tspan>
<tspan x="10" y="1018">  │ │ └── graceful-readlink@1.0.1 </tspan>
<tspan x="10" y="1034">  │ ├─┬ debug@2.2.0 </tspan>
<tspan x="10" y="1050">  │ │ └── ms@0.7.1 </tspan>
<tspan x="10" y="1066">  │ ├── diff@1.4.0 </tspan>
<tspan x="10" y="1082">  │ ├── escape-string-regexp@1.0.5 </tspan>
<tspan x="10" y="1098">  │ ├─┬ glob@7.0.5 </tspan>
<tspan x="10" y="1114">  │ │ ├── fs.realpath@1.0.0 </tspan>
<tspan x="10" y="1130">  │ │ ├─┬ inflight@1.0.6 </tspan>
<tspan x="10" y="1146">  │ │ │ └── wrappy@1.0.2 </tspan>
<tspan x="10" y="1162">  │ │ ├── inherits@2.0.3 </tspan>
<tspan x="10" y="1178">  │ │ ├─┬ minimatch@3.0.3 </tspan>
<tspan x="10" y="1194">  │ │ │ └─┬ brace-expansion@1.1.6 </tspan>
<tspan x="10" y="1210">  │ │ │   ├── balanced-match@0.4.2 </tspan>
<tspan x="10" y="1226">  │ │ │   └── concat-map@0.0.1 </tspan>
<tspan x="10" y="1242">  │ │ ├── once@1.4.0 </tspan>
<tspan x="10" y="1258">  │ │ └── path-is-absolute@1.0.1 </tspan>
<tspan x="10" y="1274">  │ ├── growl@1.9.2 </tspan>
<tspan x="10" y="1290">  │ ├── json3@3.3.2 </tspan>
<tspan x="10" y="1306">  │ ├─┬ lodash.create@3.1.1 </tspan>
<tspan x="10" y="1322">  │ │ ├── lodash._baseassign@3.2.0 </tspan>
<tspan x="10" y="1338">  │ │ └── lodash._basecreate@3.0.3 </tspan>
<tspan x="10" y="1354">  │ ├─┬ mkdirp@0.5.1 </tspan>
<tspan x="10" y="1370">  │ │ └── minimist@0.0.8 </tspan>
<tspan x="10" y="1386">  │ └─┬ supports-color@3.1.2 </tspan>
<tspan x="10" y="1402">  │   └── has-flag@1.0.0 </tspan>
<tspan x="10" y="1418">  ├─┬ npm-run-path@2.0.2 </tspan>
<tspan x="10" y="1434">  │ └── path-key@2.0.1 </tspan>
<tspan x="10" y="1450">  └─┬ through2@2.0.3 </tspan>
<tspan x="10" y="1466">    ├─┬ readable-stream@2.2.6 </tspan>
<tspan x="10" y="1482">    │ ├── buffer-shims@1.0.0 </tspan>
<tspan x="10" y="1498">    │ ├── core-util-is@1.0.2 </tspan>
<tspan x="10" y="1514">    │ ├── isarray@1.0.0 </tspan>
<tspan x="10" y="1530">    │ ├── process-nextick-args@1.0.7 </tspan>
<tspan x="10" y="1546">    │ ├── string_decoder@0.10.31 </tspan>
<tspan x="10" y="1562">    │ └── util-deprecate@1.0.2 </tspan>
<tspan x="10" y="1578">    └── xtend@4.0.1</tspan>
</text>
</svg>
